<?xml version="1.0" encoding="UTF-8" standalone="no"?>
<!-- Generator: Adobe Illustrator 24.3.0, SVG Export Plug-In . SVG Version: 6.00 Build 0)  -->

<svg
   xmlns:dc="http://purl.org/dc/elements/1.1/"
   xmlns:cc="http://creativecommons.org/ns#"
   xmlns:rdf="http://www.w3.org/1999/02/22-rdf-syntax-ns#"
   xmlns:svg="http://www.w3.org/2000/svg"
   xmlns="http://www.w3.org/2000/svg"
   xmlns:sodipodi="http://sodipodi.sourceforge.net/DTD/sodipodi-0.dtd"
   xmlns:inkscape="http://www.inkscape.org/namespaces/inkscape"
   version="1.1"
   id="Layer_1"
   x="0px"
   y="0px"
   viewBox="0 0 1000 1000"
   xml:space="preserve"
   sodipodi:docname="expensify-iconmark.svg"
   width="1000"
   height="1000"
   inkscape:version="0.92.4 (5da689c313, 2019-01-14)"><metadata
   id="metadata17"><rdf:RDF><cc:Work
       rdf:about=""><dc:format>image/svg+xml</dc:format><dc:type
         rdf:resource="http://purl.org/dc/dcmitype/StillImage" /><dc:title></dc:title></cc:Work></rdf:RDF></metadata><defs
   id="defs15" /><sodipodi:namedview
   pagecolor="#ffffff"
   bordercolor="#111111"
   borderopacity="1"
   objecttolerance="10"
   gridtolerance="10"
   guidetolerance="10"
   inkscape:pageopacity="0"
   inkscape:pageshadow="2"
   inkscape:window-width="1920"
   inkscape:window-height="1017"
   id="namedview13"
   showgrid="false"
   fit-margin-top="0"
   fit-margin-left="0"
   fit-margin-right="0"
   fit-margin-bottom="0"
   inkscape:zoom="0.417193"
   inkscape:cx="1106.5116"
   inkscape:cy="285.63676"
   inkscape:window-x="1912"
   inkscape:window-y="-8"
   inkscape:window-maximized="1"
   inkscape:current-layer="Layer_1" />
<style
   type="text/css"
   id="style2">
	.st0{fill:#0B1B34;}
	.st1{fill:#03D47C;}
	.st2{fill:#0185FF;}
	.st3{fill:#FED607;}
</style>
<path
   class="st0"
   d="M 340,730 H 660 V 635 H 457 V 546 H 630 V 449 H 457 V 364 H 660 V 270 H 340 Z"
   id="path4"
   inkscape:connector-curvature="0"
   style="fill:#0b1b34;stroke-width:10" />
<path
   class="st1"
   d="m 900,500 c 0,96 -34,184 -90,253 l 71,71 c 74,-87 119,-200 119,-324 0,-122 -44,-234 -116,-320 l -71,71 c 54,68 87,155 87,249 z"
   id="path6"
   inkscape:connector-curvature="0"
   style="fill:#03d47c;stroke-width:10" />
<path
   class="st2"
   d="m 753,810 c -69,56 -157,90 -253,90 -94,0 -181,-33 -249,-87 l -71,71 c 87,73 199,116 320,116 124,0 237,-45 324,-119 z"
   id="path8"
   inkscape:connector-curvature="0"
   style="fill:#0185ff;stroke-width:10" />
<path
   class="st3"
   d="M 193,757 C 135,687 100,598 100,500 100,279 279,100 500,100 c 98,0 187,35 257,93 l 71,-71 C 740,46 625,0 500,0 224,0 0,224 0,500 0,625 46,740 122,828 Z"
   id="path10"
   inkscape:connector-curvature="0"
   style="fill:#fed607;stroke-width:10" />
</svg>