<?xml version="1.0" encoding="UTF-8"?>
<svg id="Layer_1" data-name="Layer 1" xmlns="http://www.w3.org/2000/svg" viewBox="0 0 1000 1000">
  <defs>
    <style>
      .cls-1 {
        fill: #0c6dc7;
      }

      .cls-1, .cls-2 {
        stroke-width: 0px;
      }

      .cls-2 {
        fill: #fff;
      }
    </style>
  </defs>
  <rect class="cls-1" x="0" y="0" width="1000" height="1000" rx="500" ry="500"/>
  <g>
    <g>
      <path class="cls-2" d="m671.1,466.3v94h-23.9v-11.9c-3.1,4.1-7,7.3-12,9.6-4.9,2.3-10.3,3.5-16,3.5s-13.9-1.6-19.5-4.7c-5.7-3.1-10.1-7.7-13.3-13.7-3.2-6.1-4.8-13.3-4.8-21.6v-55.2h23.8v51.8c0,7.5,1.9,13.2,5.6,17.2,3.7,4,8.8,6,15.3,6s11.7-2,15.4-6,5.6-9.8,5.6-17.2v-51.8h23.9,0Z"/>
      <path class="cls-2" d="m744.7,510.1c-4.4-1.8-10-3.6-16.8-5.3-6.7-1.7-11.6-3.4-14.8-5s-4.8-4-4.8-7.2,1.2-5,3.5-6.6,5.6-2.4,9.9-2.4,8.3,1.1,11.1,3.3c2.8,2.2,4.3,5.2,4.7,8.9h22.7c-.7-9.5-4.4-17.1-11-22.7-6.7-5.6-15.6-8.4-26.8-8.4s-14.2,1.2-19.8,3.7-9.9,5.9-12.9,10.2c-3,4.3-4.5,9.1-4.5,14.3s1.6,11.4,4.8,15.1,7.1,6.5,11.5,8.3c4.5,1.8,10.2,3.6,17.2,5.3,6.8,1.8,11.7,3.5,14.9,5,3.1,1.5,4.7,3.8,4.7,6.9s-1.3,5.2-3.8,7-6.1,2.7-10.6,2.7-8.5-1.2-11.6-3.6c-3.1-2.4-4.9-5.4-5.3-9h-23.9c.3,5.8,2.3,11,5.9,15.8,3.6,4.8,8.4,8.5,14.5,11.3s13,4.2,20.7,4.2,14-1.2,19.6-3.6c5.6-2.4,9.9-5.8,12.9-10.1s4.5-9.2,4.5-14.6c0-6.2-1.8-11.2-5-15s-7-6.6-11.5-8.4h0Z"/>
      <path class="cls-2" d="m552.6,469.2c-4.9,2.8-8.9,6.7-12,11.7v-14.6h-23.8v94h23.8v-46.9c0-8.7,1.9-14.8,5.7-18.3s9.4-5.3,16.9-5.3h6.3v-25c-6.3,0-12,1.4-16.9,4.2v.2Z"/>
      <path class="cls-2" d="m341.6,519.7c0-4,3.2-7.2,7.2-7.2s7.2,3.2,7.2,7.2-.2,1.9-.5,2.8l7.4,6.7c1-.6,2.2-.9,3.4-.9s2,.2,2.8.6l17.5-33.6c-.7-1.1-1.2-2.5-1.2-3.9,0-4,3.2-7.2,7.2-7.2s7.2,3.2,7.2,7.2-.3,2.4-.9,3.4l10.2,15.3c.7-.2,1.4-.3,2.1-.3s1.3.1,1.9.3l11.2-20.6c-.3-.5-.5-1-.8-1.5-4.2-7.4-10-13-17.4-17.1-7.4-4-15.6-6-24.6-6s-17.3,2-24.6,6c-7.4,4-13.2,9.7-17.4,17.1-4.2,7.4-6.4,15.8-6.4,25.5s.9,12,2.6,17.3l6.3-8.2c-.3-.8-.5-1.7-.5-2.7v-.2Z"/>
      <path class="cls-2" d="m417.4,513.3c.6,1,1,2.2,1,3.5,0,4-3.2,7.2-7.2,7.2s-7.2-3.2-7.2-7.2.4-2.4.9-3.5l-10.2-15.3c-.7.2-1.4.4-2.1.4s-1.1,0-1.6-.2l-18.1,34.6c.3.8.5,1.6.5,2.5,0,4-3.2,7.2-7.2,7.2s-7.2-3.2-7.2-7.2.1-1.5.4-2.1l-7.8-7c-.9.4-1.8.6-2.9.6s-2-.2-2.9-.6l-7.8,10.1,1.2,2.4c4.1,7.4,9.8,13,17.1,17.1,7.2,4,15.4,6,24.4,6s17.5-2,24.9-6,13.3-9.7,17.7-17.1c4.4-7.4,6.5-15.8,6.5-25.5s-1-12.3-2.8-17.7l-9.6,17.7h0Z"/>
      <rect class="cls-2" x="147.9" y="441.9" width="23.8" height="118.5"/>
      <path class="cls-2" d="m262.9,475.6c-6.9-7.1-16-10.6-27.2-10.6s-11.3,1.2-16.2,3.5-9,5.5-12.1,9.6v-11.7h-23.8v94h23.8v-51.9c0-7.5,1.9-13.2,5.7-17.2s9-6,15.5-6,11.5,2,15.3,6c3.7,4,5.6,9.8,5.6,17.2v51.9h23.8v-55.2c0-12.7-3.5-22.5-10.4-29.6Z"/>
      <polygon class="cls-2" points="418 461.1 449.5 461.1 449.5 560.4 473.3 560.4 473.3 461.1 504.9 461.1 504.9 441.9 418 441.9 418 461.1"/>
      <path class="cls-2" d="m818.1,485.9v-19.5h-21.1v-23.5h-23.9v88.3c0,19.5,10,29.2,30,29.2h14.9v-20h-11c-3.6,0-6.2-.7-7.7-2.1-1.5-1.4-2.3-3.7-2.3-6.9v-45.5h21.1Z"/>
      <path class="cls-2" d="m312.7,460.4c2.3-1.9,6.3-2.9,12.1-2.8v-19.5c-13.2-.3-23.1,2.5-29.7,7.7s-9.8,13.3-9.8,24.3v90.3h24.1v-70.6h16.5v-19.5h-16.5c0-4.7,1.2-8,3.4-9.9h-.1Z"/>
    </g>
    <g id="b49QrQ.tif">
      <g>
        <path class="cls-2" d="m858.7,438.1c13.4,0,24.3,10.9,24.3,24.3s-10.9,24.2-23.9,24.3c-13.6.2-24.6-10.9-24.6-24.3s10.9-24.3,24.3-24.3h0Zm21.2,24.3c0-11.8-9.6-21.1-21-21.3-11.8-.1-21.5,9.5-21.5,21.2s9.5,21.4,21.2,21.4,21.2-9.5,21.2-21.3h0Z"/>
        <path class="cls-2" d="m861.1,458.4v11.3h-2.7v-14.6h4.1c.2,0,.3,0,.3.2.8,3.1,1.7,6.3,2.5,9.4,0,0,0,.2,0,.2,0-.4.2-.9.4-1.3.7-2.8,1.5-5.6,2.2-8.4,0-.1,0-.2.2-.2h4.2v14.6h-2.7v-11.3h0c-.9,3.7-1.8,7.4-2.8,11,0,.2,0,.2-.3.2h-2.4q-.2,0-.3-.2c-.7-2.9-1.4-5.8-2.2-8.6-.2-.7-.4-1.5-.6-2.2v-.2h0Z"/>
        <path class="cls-2" d="m845,457.5v-2.4h11.6v2.4h-4.3v12.2h-2.9v-12.1h-4.4Z"/>
      </g>
    </g>
  </g>
</svg>